<?xml version="1.0" standalone="no"?>
<!DOCTYPE svg PUBLIC "-//W3C//DTD SVG 20010904//EN"
 "http://www.w3.org/TR/2001/REC-SVG-20010904/DTD/svg10.dtd">
<svg version="1.0" xmlns="http://www.w3.org/2000/svg"
 width="1280.000000pt" height="1280.000000pt" viewBox="0 0 1280.000000 1280.000000"
 preserveAspectRatio="xMidYMid meet">
<metadata>
Created by potrace 1.14, written by Peter Selinger 2001-2017
</metadata>
<g transform="translate(0.000000,1280.000000) scale(0.100000,-0.100000)"
fill="#000000" stroke="none">
<path d="M6105 11384 c-190 -13 -392 -36 -495 -55 -337 -62 -508 -105 -775
-194 -415 -138 -941 -405 -1255 -638 -150 -111 -293 -222 -326 -252 -6 -5 -46
-41 -90 -78 -95 -81 -328 -315 -445 -447 -251 -283 -493 -641 -679 -1005 -78
-155 -184 -390 -225 -505 -138 -386 -227 -761 -276 -1165 -37 -305 -36 -850 1
-1115 30 -212 44 -304 60 -380 38 -176 50 -229 71 -306 12 -43 25 -92 29 -109
25 -92 32 -113 87 -270 326 -931 961 -1775 1769 -2352 678 -485 1446 -779
2309 -885 153 -19 232 -22 525 -23 370 0 511 10 815 60 147 25 205 36 375 77
534 128 1083 371 1560 691 130 87 331 241 455 348 140 121 370 347 476 469 41
47 76 87 79 90 3 3 33 39 66 80 378 470 660 990 844 1555 91 282 133 456 190
805 54 331 67 830 30 1177 -38 366 -85 610 -176 918 -165 564 -428 1088 -782
1560 -259 346 -622 709 -969 973 -671 508 -1496 843 -2333 947 -164 20 -532
45 -640 44 -47 -1 -170 -8 -275 -15z m640 -444 c291 -21 597 -75 878 -154 116
-33 303 -95 352 -116 11 -5 45 -19 75 -31 30 -12 74 -30 97 -40 24 -11 45 -19
49 -19 14 0 281 -134 389 -195 110 -62 363 -221 375 -235 3 -4 28 -21 55 -40
208 -141 537 -442 760 -696 147 -167 386 -501 480 -669 99 -178 127 -231 170
-320 53 -110 113 -246 125 -285 5 -14 18 -50 30 -80 123 -315 217 -717 262
-1115 20 -178 22 -657 3 -844 -65 -669 -253 -1265 -575 -1827 -151 -263 -418
-631 -565 -779 -22 -22 -67 -70 -100 -105 -55 -59 -142 -142 -268 -258 -26
-23 -47 -47 -47 -52 0 -6 -6 -10 -13 -10 -30 0 -74 -32 -102 -75 -16 -25 -38
-45 -47 -45 -9 0 -23 -6 -30 -13 -8 -6 -32 -22 -55 -34 -35 -19 -43 -20 -53
-8 -9 10 -8 19 4 37 19 30 57 140 50 147 -2 3 -7 -5 -11 -18 -4 -15 -11 -21
-23 -18 -17 4 -30 -23 -34 -73 0 -8 -6 -14 -11 -13 -6 1 -10 -18 -9 -43 1 -34
-3 -47 -17 -54 -23 -13 -25 -8 -34 69 -9 81 -23 62 -23 -31 1 -50 4 -68 14
-68 19 0 17 -11 -6 -38 -20 -24 -174 -112 -195 -112 -7 0 -20 -9 -29 -19 -10
-11 -24 -17 -31 -15 -7 3 -16 1 -19 -5 -4 -6 -14 -7 -22 -4 -9 3 -27 -3 -42
-14 -15 -11 -44 -23 -65 -27 -21 -4 -46 -15 -55 -24 -9 -9 -21 -17 -27 -17
-22 -1 -85 -27 -85 -36 0 -6 -4 -8 -9 -5 -9 6 -40 -23 -39 -38 0 -5 -13 -16
-29 -25 -15 -9 -30 -19 -33 -22 -3 -3 -15 -11 -27 -18 -33 -17 -38 4 -7 28 19
15 22 21 10 21 -9 0 -16 5 -16 10 0 6 5 10 10 10 6 0 10 9 10 20 0 11 5 20 10
20 6 0 10 -4 10 -10 0 -18 18 -10 23 10 3 11 17 24 31 30 21 8 26 16 26 46 0
27 -4 35 -14 31 -7 -3 -19 0 -26 6 -9 9 -17 5 -35 -18 -21 -25 -23 -26 -18 -7
4 16 1 22 -10 22 -9 0 -19 -5 -22 -10 -5 -8 -12 -7 -22 2 -12 10 -18 9 -29 -7
-8 -10 -14 -22 -14 -27 0 -4 -7 -8 -15 -8 -8 0 -15 9 -15 20 0 11 -6 20 -12
21 -7 0 3 5 22 12 20 7 36 20 38 31 4 16 0 18 -32 12 -33 -6 -36 -5 -36 16 -1
22 -1 22 -15 4 -7 -10 -18 -15 -24 -12 -14 9 -60 -44 -54 -61 3 -8 0 -19 -7
-23 -10 -6 -10 -13 2 -36 8 -16 21 -42 30 -59 8 -16 20 -29 25 -28 6 1 14 -14
18 -34 3 -20 13 -47 22 -59 14 -22 14 -24 -4 -24 -12 0 -23 11 -30 31 -7 17
-17 28 -22 24 -7 -4 -11 4 -11 19 0 15 -12 34 -32 50 -18 15 -38 31 -45 36
-39 32 -88 60 -105 60 -10 0 -30 -7 -43 -16 -14 -9 -25 -12 -25 -7 0 14 40 44
50 38 16 -10 11 7 -7 27 -29 33 -123 19 -110 -16 3 -8 2 -18 -4 -22 -6 -3 -13
3 -16 15 -4 16 -9 19 -24 11 -10 -6 -16 -17 -13 -25 7 -17 -21 -21 -31 -5 -3
6 -15 10 -26 10 -11 0 -22 7 -25 15 -4 8 -14 15 -25 15 -10 0 -23 9 -29 20 -6
11 -17 20 -25 20 -9 0 -24 5 -35 12 -27 17 -31 8 -24 -45 7 -45 7 -46 48 -49
l41 -4 -40 -7 c-22 -5 -50 -14 -63 -20 -18 -8 -25 -8 -31 1 -11 18 -6 57 8 54
14 -3 15 15 0 20 -5 2 -10 22 -11 46 0 29 -5 42 -14 42 -8 0 -14 -9 -14 -20 0
-11 -11 -27 -24 -36 -14 -8 -26 -27 -28 -42 -4 -32 -22 -36 -26 -6 -3 19 -6
20 -27 10 -14 -6 -25 -14 -25 -17 0 -3 -11 -23 -25 -43 -18 -27 -21 -36 -10
-36 17 0 20 -41 4 -57 -7 -7 3 -13 33 -21 86 -22 125 -24 157 -8 52 28 58 17
8 -16 l-48 -31 -74 18 -74 19 -37 -40 c-33 -34 -37 -36 -30 -14 17 57 11 61
-98 78 -27 4 -51 12 -53 18 -2 7 13 8 49 3 29 -4 60 -8 69 -8 23 -1 33 58 19
109 -15 56 -7 77 29 76 16 -1 27 -5 25 -11 -2 -5 7 -15 21 -22 22 -10 25 -9
25 8 0 10 5 19 10 19 6 0 10 7 10 15 0 9 9 26 21 38 l20 22 -27 3 c-31 4 -46
-14 -39 -45 6 -25 -12 -32 -21 -8 -4 8 -13 15 -21 15 -11 0 -14 7 -10 25 3 16
0 24 -7 22 -6 -2 -12 -13 -14 -25 -4 -28 -20 -28 -31 0 -5 14 -10 17 -15 10
-12 -20 -29 -13 -23 9 4 14 -1 23 -16 29 -17 6 -28 2 -49 -18 -27 -25 -28 -25
-28 -5 0 28 -31 39 -47 18 -6 -10 -17 -14 -23 -10 -6 4 -19 0 -28 -7 -32 -28
-40 -29 -38 -5 4 38 15 50 32 36 17 -14 29 -6 21 16 -4 10 -19 15 -46 15 -53
0 -71 -8 -72 -34 -1 -18 -2 -18 -6 -3 -4 15 -10 17 -31 11 -15 -4 -41 -8 -59
-8 -17 -1 -40 -9 -50 -19 -11 -9 -26 -17 -35 -17 -8 0 -36 -7 -62 -16 -34 -12
-44 -19 -35 -25 11 -6 10 -11 -6 -23 -18 -13 -21 -13 -27 5 -6 15 -14 17 -40
12 -18 -3 -37 -9 -43 -13 -5 -5 -27 -10 -47 -13 -20 -2 -52 -14 -71 -26 -19
-11 -43 -21 -54 -21 -21 0 -105 -42 -136 -68 -9 -8 -19 -13 -22 -10 -13 13
112 100 160 112 16 4 42 18 58 32 22 19 32 22 43 13 14 -11 34 -5 34 12 0 5
-9 9 -20 9 -20 0 -20 1 -3 26 14 22 18 24 27 12 11 -15 17 -18 37 -18 5 0 7
-4 4 -10 -3 -5 3 -10 14 -10 25 0 37 18 22 33 -14 14 -15 47 -1 47 5 0 12 -11
16 -25 9 -36 60 -36 74 0 11 30 25 34 17 5 -4 -18 -2 -20 16 -14 33 10 55 33
69 70 7 19 16 34 21 34 4 0 6 8 3 18 -4 12 3 29 19 46 16 18 25 39 25 61 0 41
-15 53 -30 25 -6 -11 -17 -20 -24 -20 -8 0 -21 -18 -30 -40 -9 -22 -19 -40
-22 -40 -4 0 -4 27 -1 60 7 64 -5 78 -35 43 -32 -39 -69 -126 -58 -137 8 -8
13 -7 20 4 5 8 12 11 16 8 9 -10 -35 -68 -51 -68 -7 0 -16 -8 -18 -17 -3 -11
-5 -7 -6 10 0 15 -5 27 -10 27 -13 0 -32 -26 -24 -33 3 -4 0 -7 -7 -7 -7 0
-19 -8 -26 -17 -7 -10 -16 -15 -20 -11 -4 5 1 17 10 27 17 19 17 21 -5 50 -13
17 -26 31 -31 31 -4 0 -8 7 -8 15 0 13 3 13 20 3 11 -7 23 -21 26 -30 9 -29
37 -20 65 21 36 52 46 83 23 74 -15 -6 -15 -4 1 20 29 44 12 56 -26 18 -22
-22 -43 -34 -61 -34 -23 0 -31 -9 -53 -54 -15 -29 -31 -53 -36 -53 -5 0 -9 -6
-9 -13 0 -7 -16 -28 -35 -47 l-35 -34 -1 30 c-2 28 -2 28 -8 -6 -9 -45 -6 -50
30 -50 39 0 34 -23 -6 -30 -16 -3 -31 -14 -35 -24 -4 -14 -9 -16 -14 -8 -4 7
-17 10 -30 6 -16 -4 -23 -1 -23 10 0 9 2 14 5 11 8 -7 42 68 42 92 0 28 -35
50 -44 27 -3 -9 -6 -26 -6 -39 0 -29 -18 -43 -26 -21 -3 9 -10 13 -15 10 -5
-3 -9 0 -9 5 0 6 5 11 10 11 6 0 5 6 -2 14 -19 21 -51 1 -42 -26 4 -15 2 -19
-7 -16 -8 3 -14 11 -14 18 0 24 -24 22 -46 -4 -13 -14 -31 -26 -41 -26 -25 0
-95 -36 -101 -52 -3 -7 -6 -4 -6 7 -1 25 14 49 26 42 11 -7 64 36 67 55 3 20
57 122 68 129 6 4 6 9 -1 13 -6 4 -11 3 -11 -2 0 -12 -50 -26 -59 -17 -3 4 2
11 12 16 21 12 22 23 1 43 -14 15 -14 16 0 16 12 0 14 4 7 18 -5 9 -12 25 -15
35 -3 9 -10 17 -17 17 -6 0 -9 -6 -6 -12 2 -7 0 -22 -6 -33 -18 -34 -16 -101
4 -115 25 -19 7 -52 -42 -78 l-39 -21 0 30 c0 25 3 29 19 24 31 -10 46 27 26
65 -9 17 -13 40 -9 54 4 16 1 25 -11 30 -14 5 -16 0 -11 -39 5 -36 3 -47 -9
-51 -8 -3 -15 -13 -15 -21 0 -23 -25 -9 -28 15 -2 12 -8 22 -14 22 -5 0 -8 6
-5 14 6 16 -2 28 -14 20 -5 -3 -4 -15 2 -26 8 -15 8 -26 -2 -44 -10 -19 -10
-29 0 -48 7 -13 10 -33 6 -45 -4 -13 -2 -21 5 -21 6 0 10 -5 8 -11 -2 -6 -7
-10 -11 -10 -4 1 -19 -12 -35 -29 -15 -16 -38 -31 -52 -32 -23 -3 -26 1 -30
42 -5 34 -7 39 -10 20 -3 -16 -11 -25 -23 -24 -9 1 -17 -2 -17 -7 0 -5 -7 -9
-15 -9 -8 0 -15 -7 -15 -15 0 -8 -7 -15 -15 -15 -7 0 -18 -8 -24 -17 -5 -10
-13 -15 -16 -11 -4 4 3 17 15 30 34 36 53 98 30 98 -5 0 -10 -13 -10 -29 0
-33 -20 -54 -47 -49 -15 2 -18 -3 -15 -33 3 -42 -22 -74 -39 -48 -5 8 -6 21
-3 29 17 44 35 113 30 118 -3 3 -14 -2 -24 -11 -10 -10 -24 -17 -30 -17 -7 0
-12 -4 -12 -10 0 -5 -9 -10 -20 -10 -10 0 -28 -10 -40 -22 -11 -12 -23 -18
-27 -15 -10 11 -43 -24 -43 -45 0 -11 -4 -17 -9 -14 -11 7 -71 -22 -71 -35 0
-16 29 -10 50 11 11 11 22 20 25 20 3 0 12 0 21 0 9 0 12 5 8 11 -4 7 -1 10 7
7 17 -6 23 -31 15 -64 -7 -28 -32 -31 -58 -7 -16 15 -22 15 -40 4 -12 -7 -35
-15 -51 -18 -26 -4 -28 -2 -22 19 6 21 5 22 -8 6 -8 -10 -19 -18 -26 -18 -6 0
-11 -6 -11 -14 0 -8 -7 -16 -15 -20 -21 -8 -19 -46 3 -46 16 -1 16 -1 -1 -11
-20 -12 -37 -4 -37 17 0 8 -4 12 -10 9 -5 -3 -10 -17 -10 -30 0 -13 -4 -27
-10 -30 -6 -3 -10 3 -10 14 0 12 -4 21 -10 21 -5 0 -10 9 -10 19 0 17 -6 19
-47 15 -27 -3 -57 -9 -68 -14 -18 -8 -75 -17 -147 -23 -16 -1 -28 -5 -28 -8 0
-12 45 -16 103 -9 35 4 61 2 68 -4 7 -8 -22 -14 -96 -22 -70 -7 -110 -16 -117
-25 -7 -11 -11 -11 -15 -1 -3 8 -30 12 -81 12 -49 1 -84 6 -95 14 -21 16 -16
21 33 31 19 4 46 12 60 18 14 6 45 12 70 13 157 10 304 34 313 50 4 8 15 14
22 14 8 0 15 7 15 15 0 9 -6 12 -15 9 -12 -5 -15 2 -15 31 0 28 -5 38 -20 42
-23 6 -25 16 -8 42 6 10 8 26 5 36 -6 15 -9 15 -27 -6 l-19 -24 -1 22 c0 12
-4 24 -9 27 -8 5 -16 -43 -24 -141 -3 -33 -17 -59 -17 -31 0 9 -7 18 -15 22
-8 3 -15 15 -15 26 0 11 -7 20 -15 20 -8 0 -15 5 -15 10 0 6 -9 10 -20 10 -15
0 -20 7 -20 25 0 26 9 32 26 15 6 -6 9 5 9 30 0 42 -18 50 -23 12 -3 -17 -10
-22 -32 -22 -21 0 -31 -6 -36 -22 -3 -12 -13 -28 -20 -36 -12 -12 -17 -10 -34
10 l-20 23 2 -92 c2 -98 -5 -129 -16 -66 -11 62 -16 72 -32 66 -7 -3 -14 0
-14 6 0 6 7 11 15 11 8 0 15 7 15 15 0 11 -5 12 -25 5 -13 -5 -26 -6 -29 -1
-7 10 26 59 53 77 26 18 27 58 4 115 -16 41 -16 41 -29 18 -7 -13 -13 -35 -13
-49 0 -14 3 -19 6 -12 9 22 23 12 23 -17 0 -16 -6 -34 -14 -40 -12 -10 -18 -8
-31 12 -9 14 -13 32 -9 43 6 16 5 17 -7 6 -7 -7 -13 -33 -14 -60 0 -28 -4 -46
-11 -45 -7 1 -9 -8 -6 -24 4 -23 2 -25 -16 -21 -25 7 -51 -16 -28 -25 9 -4 12
-14 9 -28 -4 -16 -2 -20 8 -17 8 3 13 14 12 26 -2 13 5 22 19 25 40 11 38 -4
-8 -61 -67 -83 -65 -82 -61 -30 3 38 1 45 -11 40 -12 -4 -14 0 -8 21 6 27 -11
40 -18 15 -16 -53 -15 -52 -36 -33 -24 22 -25 41 -5 61 8 9 15 21 15 27 0 8
-4 7 -12 -1 -21 -21 -27 -13 -21 23 5 30 3 34 -11 29 -19 -7 -36 -35 -36 -61
0 -10 -5 -25 -10 -33 -9 -13 -12 -13 -21 3 -5 9 -22 17 -36 17 -24 0 -25 2
-19 45 7 41 5 45 -14 45 -12 0 -30 -5 -41 -11 -25 -13 -66 -2 -50 14 5 5 22
11 37 13 30 3 53 29 54 60 0 12 3 36 6 53 6 28 4 31 -17 31 l-23 0 22 16 c12
8 22 24 22 36 l0 20 -32 -21 c-23 -14 -34 -30 -38 -53 -4 -27 -10 -33 -29 -33
-31 0 -47 38 -25 60 9 8 14 21 12 27 -7 19 -40 -26 -45 -59 -5 -36 -5 -42 3
-75 3 -15 3 -36 -1 -45 -6 -16 -8 -15 -20 7 -8 14 -14 33 -15 43 0 10 -7 20
-15 23 -10 4 -13 16 -9 47 5 31 3 39 -5 31 -7 -6 -13 -28 -15 -50 -3 -28 -9
-40 -21 -43 -15 -2 -17 2 -12 30 3 19 9 45 13 58 5 16 4 22 -4 17 -6 -3 -13
-20 -17 -36 -9 -41 -16 -43 -59 -13 -36 24 -38 28 -32 64 7 43 -2 50 -22 19
-17 -27 -27 -25 -68 13 -36 34 -51 46 -76 62 -105 67 -403 364 -580 575 -229
275 -467 638 -592 905 -78 164 -101 217 -145 327 -103 259 -187 550 -235 813
-65 356 -71 425 -71 830 0 243 4 391 13 455 58 416 89 568 178 862 148 490
404 986 722 1398 170 220 434 499 637 671 382 325 786 569 1248 755 196 79
491 170 672 208 44 10 98 21 120 27 102 24 350 57 510 68 160 11 539 12 690 1z
m-260 -8030 c-5 -8 -11 -8 -17 -2 -6 6 -7 16 -3 22 5 8 11 8 17 2 6 -6 7 -16
3 -22z m-105 10 c0 -5 -9 -14 -20 -20 -22 -12 -27 -1 -8 18 14 14 28 16 28 2z
m156 -56 c-3 -9 -6 -21 -6 -27 0 -7 -5 -4 -11 6 -11 18 -5 37 13 37 5 0 7 -7
4 -16z m-2486 -13 c0 -6 -4 -13 -10 -16 -5 -3 -10 1 -10 9 0 9 5 16 10 16 6 0
10 -4 10 -9z m2223 -17 c-4 -10 1 -22 11 -30 10 -7 15 -18 11 -24 -5 -8 -10
-8 -20 0 -9 8 -17 6 -29 -5 -15 -15 -16 -15 -16 5 0 23 27 70 41 70 5 0 6 -7
2 -16z m-513 -79 c0 -8 -7 -15 -15 -15 -8 0 -15 7 -15 15 0 8 7 15 15 15 8 0
15 -7 15 -15z m-45 -24 c3 -5 1 -12 -5 -16 -5 -3 -10 1 -10 9 0 18 6 21 15 7z
m-147 -40 c3 -8 -1 -12 -9 -9 -7 2 -15 10 -17 17 -3 8 1 12 9 9 7 -2 15 -10
17 -17z m125 -2 c4 -15 0 -23 -14 -26 -10 -3 -22 -16 -25 -30 -8 -31 -28 -24
-32 11 -2 18 0 26 7 21 6 -3 14 2 18 12 13 36 38 42 46 12z m347 11 c0 -5 -4
-10 -9 -10 -6 0 -13 5 -16 10 -3 6 1 10 9 10 9 0 16 -4 16 -10z m-319 -53 c-8
-8 -11 -7 -11 4 0 20 13 34 18 19 3 -7 -1 -17 -7 -23z m279 23 c0 -5 -10 -10
-22 -10 -19 0 -20 2 -8 10 19 13 30 13 30 0z m960 -16 c0 -12 7 -14 28 -9 20
4 33 1 43 -11 12 -15 11 -16 -19 -9 -27 5 -41 1 -81 -24 -26 -17 -50 -31 -53
-31 -3 0 -3 11 0 25 4 21 8 24 29 19 18 -5 24 -3 22 7 -4 22 11 60 22 54 5 -4
9 -13 9 -21z m1060 6 c0 -5 -4 -10 -10 -10 -5 0 -10 5 -10 10 0 6 5 10 10 10
6 0 10 -4 10 -10z m-2097 -7 c-7 -2 -19 -2 -25 0 -7 3 -2 5 12 5 14 0 19 -2
13 -5z m-48 -13 c-3 -5 -16 -10 -28 -10 -12 0 -57 -8 -99 -17 -70 -15 -78 -19
-78 -39 0 -26 -17 -41 -31 -27 -16 16 3 52 39 70 21 10 69 20 107 24 39 3 76
6 83 7 7 1 10 -2 7 -8z m957 -6 c4 -3 -5 -22 -18 -41 -13 -20 -24 -43 -24 -52
0 -9 -8 -25 -16 -36 -16 -19 -16 -19 -10 10 3 17 9 45 12 63 4 17 11 32 15 32
5 0 9 7 9 15 0 15 21 21 32 9z m1203 -14 c-4 -6 -15 -8 -26 -5 -17 6 -19 3
-14 -17 6 -27 -8 -54 -24 -44 -30 19 5 76 46 76 14 0 22 -4 18 -10z m-3319
-45 c-11 -36 -28 -42 -34 -11 -6 27 6 46 26 46 17 0 18 -4 8 -35z m714 15 c0
-5 -4 -10 -10 -10 -5 0 -10 5 -10 10 0 6 5 10 10 10 6 0 10 -4 10 -10z m155 0
c3 -5 -1 -10 -10 -10 -9 0 -13 5 -10 10 3 6 8 10 10 10 2 0 7 -4 10 -10z
m1175 -20 c0 -5 -7 -10 -16 -10 -8 0 -12 5 -9 10 3 6 10 10 16 10 5 0 9 -4 9
-10z m1421 -17 c-5 -10 -13 -27 -16 -38 -4 -11 -9 -15 -12 -8 -5 13 26 78 33
70 3 -3 1 -13 -5 -24z m-483 -4 c2 6 8 11 14 11 6 0 8 -7 5 -15 -4 -8 -2 -17
3 -20 6 -4 10 -14 10 -22 0 -14 -4 -13 -20 5 -12 12 -26 22 -33 22 -7 0 -23 9
-37 20 l-25 20 40 -16 c27 -11 40 -13 43 -5z m110 -4 c1 -13 -3 -27 -8 -30
-16 -10 -24 24 -10 40 16 19 15 19 18 -10z m270 18 c0 -5 2 -16 6 -25 8 -18
-9 -58 -25 -58 -18 0 -21 28 -4 59 14 29 27 41 23 24z m-2579 -25 c-17 -34
-19 -34 -19 -5 0 18 5 27 15 27 13 0 14 -4 4 -22z m2084 -8 c3 -13 0 -20 -9
-20 -8 0 -14 10 -14 26 0 28 15 25 23 -6z m-833 10 c0 -5 -4 -10 -10 -10 -5 0
-10 5 -10 10 0 6 5 10 10 10 6 0 10 -4 10 -10z m-1560 -19 c0 -5 -9 -11 -20
-14 -11 -3 -20 -1 -20 3 0 5 8 11 18 13 9 3 18 5 20 6 1 0 2 -3 2 -8z m430 -6
c0 -8 -4 -15 -10 -15 -5 0 -10 7 -10 15 0 8 5 15 10 15 6 0 10 -7 10 -15z m70
-20 c0 -41 -12 -45 -28 -11 -7 17 -7 27 1 35 19 19 27 12 27 -24z m-467 -5
c-16 -28 -53 -42 -53 -20 0 8 57 50 68 50 2 0 -5 -13 -15 -30z m1135 13 c-2
-9 -13 -17 -25 -18 -27 -2 -30 10 -5 24 25 15 34 13 30 -6z m838 -31 c-12 -11
-18 7 -10 30 l8 23 4 -23 c2 -13 1 -26 -2 -30z m49 18 c3 -5 1 -10 -4 -10 -6
0 -11 5 -11 10 0 6 2 10 4 10 3 0 8 -4 11 -10z m639 -80 c10 -44 23 -83 27
-86 13 -8 11 -36 -3 -32 -6 2 -22 39 -34 83 -13 43 -26 80 -28 82 -2 2 -16 -7
-32 -19 -32 -26 -84 -51 -91 -44 -3 2 7 12 21 21 16 11 26 27 26 41 0 28 8 31
24 8 11 -14 14 -13 36 5 14 11 27 20 30 21 3 0 14 -36 24 -80z m-986 54 c-15
-15 -18 -15 -39 0 -23 16 -23 16 16 16 36 0 38 -1 23 -16z m722 6 c0 -5 -4
-10 -10 -10 -5 0 -10 5 -10 10 0 6 5 10 10 10 6 0 10 -4 10 -10z m-1992 -12
c20 -20 14 -38 -14 -38 -20 0 -25 4 -20 16 3 9 6 20 6 25 0 13 14 11 28 -3z
m652 2 c0 -5 -10 -15 -22 -21 -23 -12 -23 -12 -4 10 21 23 26 26 26 11z m1870
-4 c0 -2 -7 -9 -15 -16 -12 -10 -15 -10 -15 4 0 9 7 16 15 16 8 0 15 -2 15 -4z
m-3156 -30 c-3 -8 4 -16 17 -19 13 -4 21 -8 18 -11 -4 -4 -60 -7 -99 -5 -8 0
-40 0 -70 -1 -86 -3 -124 -1 -116 7 3 4 29 8 56 9 28 2 55 6 62 10 7 4 33 6
59 5 26 -1 50 2 54 8 9 16 25 13 19 -3z m541 4 c-3 -5 -28 -10 -55 -10 -27 0
-52 5 -55 10 -4 6 17 10 55 10 38 0 59 -4 55 -10z m-339 -37 c-10 -10 -19 5
-10 18 6 11 8 11 12 0 2 -7 1 -15 -2 -18z m2410 -28 c-3 -8 -9 -15 -15 -15
-10 0 -22 51 -14 63 8 13 35 -32 29 -48z m-2166 35 c0 -5 -2 -10 -4 -10 -3 0
-8 5 -11 10 -3 6 -1 10 4 10 6 0 11 -4 11 -10z m175 -5 c22 -8 49 -15 61 -15
11 0 29 -9 38 -19 10 -11 31 -25 48 -32 27 -11 29 -14 12 -19 -10 -4 -21 -4
-24 0 -21 32 -155 80 -222 80 -20 0 -40 5 -43 10 -9 15 84 11 130 -5z m455 5
c0 -5 -5 -10 -11 -10 -5 0 -7 5 -4 10 3 6 8 10 11 10 2 0 4 -4 4 -10z m862 4
c10 -10 -25 -84 -40 -84 -11 0 -13 8 -8 32 9 44 32 69 48 52z m508 -21 c0 -20
-3 -24 -11 -16 -7 7 -9 19 -6 27 10 24 17 19 17 -11z m-2367 0 c-7 -2 -19 -2
-25 0 -7 3 -2 5 12 5 14 0 19 -2 13 -5z m1102 1 c13 -5 7 -11 -22 -24 -47 -21
-65 -14 -26 10 15 10 29 19 30 19 1 1 9 -2 18 -5z m-995 -20 c24 -14 23 -14
-20 -8 -53 7 -78 24 -34 24 16 -1 40 -7 54 -16z m1170 6 c-14 -4 -43 -8 -65
-8 -22 0 -51 4 -65 8 -16 5 6 8 65 8 59 0 81 -3 65 -8z m1323 -15 c-10 -13
-21 -25 -25 -25 -4 0 -3 -11 2 -25 7 -18 6 -25 -3 -26 -6 0 -32 -1 -57 -3 -25
-1 -53 -6 -63 -10 -13 -6 -16 -5 -11 8 3 9 14 16 24 16 10 0 27 11 38 25 11
14 26 25 33 25 8 0 28 9 44 20 38 25 40 25 18 -5z m-2743 5 c0 -5 -4 -10 -10
-10 -5 0 -10 5 -10 10 0 6 5 10 10 10 6 0 10 -4 10 -10z m1135 -18 c-11 -3
-23 -9 -27 -15 -4 -6 -10 -8 -14 -4 -11 11 28 36 46 29 12 -5 11 -7 -5 -10z
m-808 2 c-3 -3 -12 -4 -19 -1 -8 3 -5 6 6 6 11 1 17 -2 13 -5z m-310 -46 c-3
-8 -6 -5 -6 6 -1 11 2 17 5 13 3 -3 4 -12 1 -19z m2161 -17 c16 -10 12 -43 -5
-49 -8 -2 -13 5 -13 17 0 12 -4 21 -10 21 -5 0 -10 5 -10 10 0 12 20 13 38 1z
m-372 -43 c80 -32 175 -90 229 -139 48 -46 22 -43 -47 4 -69 47 -153 96 -230
134 -46 22 -59 33 -39 33 5 0 44 -14 87 -32z m759 2 c-3 -5 -11 -10 -16 -10
-6 0 -7 5 -4 10 3 6 11 10 16 10 6 0 7 -4 4 -10z m182 -16 c-3 -3 -12 -4 -19
-1 -8 3 -5 6 6 6 11 1 17 -2 13 -5z m70 0 c-3 -3 -12 -4 -19 -1 -8 3 -5 6 6 6
11 1 17 -2 13 -5z m-1731 -46 c17 -10 44 -20 61 -21 16 -2 53 -17 81 -33 48
-27 52 -28 64 -11 11 15 13 11 13 -32 l0 -49 -27 20 c-15 10 -30 23 -33 28 -4
6 -15 10 -26 10 -11 0 -18 -4 -14 -10 3 -5 -7 -5 -25 1 -16 6 -30 17 -30 24 0
8 -27 30 -60 50 -60 36 -87 61 -53 48 10 -4 32 -15 49 -25z m984 22 c0 -5 -4
-10 -10 -10 -5 0 -10 5 -10 10 0 6 5 10 10 10 6 0 10 -4 10 -10z m314 -86 c8
-21 8 -24 -3 -24 -5 0 -11 9 -14 20 -6 24 8 27 17 4z m-1411 -72 c9 -8 17 -19
17 -23 0 -15 -29 3 -45 28 -18 27 -7 25 28 -5z"/>
<path d="M6812 10668 c-6 -8 -16 -47 -21 -88 -6 -41 -18 -113 -26 -160 -9 -47
-20 -107 -25 -135 -4 -27 -25 -140 -45 -250 -51 -283 -65 -359 -65 -370 0 -6
17 -12 38 -13 20 -2 53 -7 72 -12 19 -4 60 -12 90 -15 30 -4 66 -12 80 -17 46
-17 180 -12 248 10 106 36 174 84 232 167 56 80 69 91 50 40 -18 -47 -22 -143
-9 -198 24 -103 97 -187 209 -239 36 -17 65 -22 140 -22 85 0 101 3 149 28 47
24 96 66 140 121 8 10 32 59 52 109 34 81 38 100 39 177 0 77 -3 93 -30 145
-38 74 -96 128 -180 168 -56 27 -76 31 -145 31 -128 0 -219 -53 -296 -171 -23
-35 -45 -64 -51 -64 -5 0 -4 9 2 20 6 11 19 73 30 138 18 108 18 123 4 189
-23 111 -91 240 -121 229 -8 -4 -11 -1 -7 5 7 11 -28 49 -46 49 -5 0 -10 4
-10 9 0 28 -173 82 -355 110 -38 5 -84 13 -101 17 -20 4 -34 1 -42 -8z m234
-127 c186 -32 287 -111 316 -244 17 -83 5 -240 -28 -353 -40 -140 -167 -244
-298 -244 -47 0 -244 28 -258 36 -5 3 -5 22 -2 42 4 20 8 44 9 52 1 8 5 22 8
30 3 8 8 33 11 55 5 42 23 148 51 300 9 50 25 142 36 205 21 127 25 140 36
140 4 0 58 -9 119 -19z m-263 -146 c-3 -9 -8 -14 -10 -11 -3 3 -2 9 2 15 9 16
15 13 8 -4z m1142 -375 c31 -16 62 -27 68 -23 5 3 7 2 4 -4 -3 -5 5 -31 18
-58 29 -56 33 -135 11 -209 -8 -25 -15 -49 -15 -51 -4 -26 -60 -112 -93 -144
-54 -53 -95 -71 -156 -71 -57 0 -106 18 -151 56 -50 42 -65 79 -65 164 0 125
63 259 152 323 58 42 66 45 123 46 34 1 63 -7 104 -29z"/>
<path d="M5920 10375 c-77 -22 -98 -33 -144 -75 -28 -26 -50 -58 -60 -87 -23
-67 -21 -73 22 -73 63 0 78 9 91 50 15 51 59 86 124 100 94 19 164 -8 191 -75
18 -43 28 -113 17 -119 -5 -4 -47 -10 -93 -16 -126 -14 -185 -29 -236 -57 -69
-38 -100 -70 -123 -132 -19 -50 -20 -61 -9 -106 17 -69 57 -130 102 -155 21
-12 38 -18 38 -14 0 3 7 0 16 -7 11 -9 41 -13 88 -12 102 1 197 47 241 116 9
15 20 27 24 27 4 0 12 -21 19 -46 l12 -45 65 3 c54 2 64 5 59 18 -19 44 -34
107 -39 162 -3 35 -13 110 -21 168 -35 254 -45 285 -109 337 -60 50 -177 66
-275 38z m17 -71 c-3 -3 -12 -4 -19 -1 -8 3 -5 6 6 6 11 1 17 -2 13 -5z m244
-315 c4 -13 7 -54 8 -91 1 -60 -2 -70 -32 -109 -115 -151 -339 -120 -339 48 0
89 69 139 214 154 49 5 97 13 106 19 24 13 35 8 43 -21z"/>
<path d="M5566 10307 c-21 -7 -42 -19 -47 -27 -10 -21 -29 -338 -29 -492 0
-70 -4 -129 -9 -132 -5 -3 -21 13 -36 35 -15 23 -99 139 -188 258 -88 119
-161 217 -161 218 -2 2 -99 -29 -105 -33 -4 -3 37 -64 53 -79 6 -5 31 -37 56
-70 24 -33 57 -76 73 -95 15 -19 31 -40 35 -45 39 -55 232 -303 262 -338 4 -5
26 -4 48 2 46 13 48 17 57 146 3 50 12 169 20 265 22 273 27 400 18 399 -4 0
-26 -6 -47 -12z"/>
<path d="M4765 10039 c-112 -25 -215 -111 -249 -207 -27 -78 -19 -206 18 -287
43 -95 103 -177 154 -211 135 -90 220 -94 373 -17 94 47 148 112 179 216 10
31 8 32 -50 41 -34 6 -35 5 -60 -50 -44 -99 -118 -147 -225 -148 -62 -1 -75 3
-115 29 -47 32 -113 110 -107 129 1 6 39 29 82 50 210 103 380 188 384 192 2
1 -13 32 -33 68 -53 95 -123 159 -202 185 -69 23 -87 24 -149 10z m150 -122
c33 -20 76 -76 79 -101 1 -11 -58 -45 -179 -104 -206 -102 -194 -104 -196 21
-1 49 4 83 16 107 20 43 83 89 130 97 19 3 35 9 35 13 0 11 80 -12 115 -33z"/>
<path d="M8263 9754 c-54 -80 -105 -156 -113 -170 -8 -13 -56 -86 -107 -163
l-91 -140 49 -32 c27 -17 51 -30 53 -28 2 2 22 33 46 69 24 36 47 67 52 68 4
2 8 8 8 13 0 5 32 57 70 115 39 59 70 109 70 111 0 2 11 19 25 38 26 34 98 65
149 65 45 0 131 -45 161 -84 34 -45 38 -116 9 -162 -10 -16 -78 -121 -152
-233 -73 -112 -132 -204 -130 -205 2 -2 24 -16 49 -33 l47 -31 133 201 c163
245 199 314 199 376 -1 91 -49 158 -152 211 -58 31 -66 32 -145 27 -46 -2 -83
-2 -83 2 0 3 9 21 20 39 11 18 20 36 20 40 0 7 -73 52 -84 52 -3 0 -50 -66
-103 -146z"/>
<path d="M3945 9840 c-44 -11 -156 -66 -190 -93 -67 -55 -143 -114 -192 -152
l-53 -39 23 -26 c13 -14 64 -77 113 -140 49 -63 97 -124 107 -135 10 -11 50
-63 90 -115 39 -52 76 -99 82 -105 5 -5 22 -26 37 -47 15 -20 33 -42 40 -50 7
-7 26 -31 42 -53 16 -22 44 -56 62 -76 17 -20 36 -44 42 -54 9 -17 13 -16 53
16 24 19 51 39 59 46 197 152 235 190 279 278 46 93 57 162 42 253 -35 210
-233 437 -424 488 -55 15 -162 17 -212 4z m224 -131 c55 -29 153 -124 210
-203 63 -85 91 -161 90 -243 -1 -133 -62 -221 -236 -341 -41 -28 -44 -27 -119
73 -28 39 -60 79 -70 90 -11 11 -48 58 -83 105 -65 85 -109 141 -135 170 -26
29 -146 188 -146 193 0 4 93 80 165 135 9 7 62 32 95 46 8 3 53 4 100 2 67 -2
95 -8 129 -27z"/>
<path d="M9032 9513 c-184 -192 -301 -313 -464 -483 -97 -101 -94 -94 -61
-127 15 -16 37 -35 47 -43 18 -14 19 -13 13 3 -4 10 -3 16 3 12 5 -3 44 30 87
74 l78 80 70 2 c68 2 70 2 69 -22 -1 -33 -24 -259 -28 -284 -2 -11 -7 -44 -11
-74 l-8 -53 49 -44 c56 -51 60 -48 68 42 3 32 12 122 21 199 9 77 18 163 21
191 5 50 6 52 42 58 20 3 117 9 215 12 97 4 177 9 177 10 0 2 -21 24 -47 48
-44 43 -50 45 -93 41 -40 -4 -294 -16 -390 -19 -19 -1 -36 4 -36 9 -1 6 94
109 212 230 117 122 222 233 234 248 l21 27 -38 35 c-21 19 -41 35 -44 35 -3
0 -96 -93 -207 -207z"/>
<path d="M6640 9229 c0 -5 5 -7 10 -4 6 3 10 8 10 11 0 2 -4 4 -10 4 -5 0 -10
-5 -10 -11z"/>
<path d="M9304 8905 c-73 -23 -158 -74 -231 -139 -74 -65 -130 -194 -120 -276
13 -109 106 -250 191 -289 91 -43 115 -51 145 -51 31 0 31 1 31 50 0 48 -1 50
-27 51 -71 1 -149 53 -201 134 -34 53 -35 140 -4 201 24 47 83 114 101 114 14
0 16 -3 151 -185 61 -82 117 -158 125 -167 7 -9 21 -28 30 -42 l17 -26 57 44
c63 49 96 88 131 156 35 66 34 176 0 244 -26 50 -87 121 -131 150 -66 43 -184
57 -265 31z m226 -126 c20 -11 45 -35 55 -52 10 -18 23 -35 29 -39 6 -4 11
-36 11 -70 0 -54 -5 -70 -30 -107 -17 -23 -43 -50 -58 -60 -25 -14 -29 -14
-37 -1 -5 8 -56 79 -114 157 -58 78 -106 146 -106 152 0 18 76 40 144 40 51 1
77 -4 106 -20z"/>
<path d="M3327 8866 c-69 -25 -143 -100 -189 -189 -26 -53 -31 -73 -31 -135 0
-65 3 -78 29 -115 17 -23 35 -42 41 -42 7 0 25 20 41 44 l30 44 -21 29 c-61
83 36 258 143 258 39 0 139 -44 147 -66 2 -7 -13 -37 -34 -66 -115 -159 -137
-208 -138 -305 0 -63 3 -76 30 -114 41 -59 108 -99 177 -106 45 -4 62 -1 103
20 60 30 121 90 110 108 -5 8 -4 10 3 5 7 -4 20 10 34 36 18 35 23 59 23 126
0 45 3 82 6 82 4 0 23 -7 42 -15 20 -8 38 -15 40 -15 6 0 67 88 67 97 0 4 -19
14 -42 21 -41 13 -108 56 -313 199 -148 104 -220 128 -298 99z m360 -290 c44
-37 63 -80 63 -148 0 -111 -76 -209 -162 -210 -55 -1 -122 40 -137 84 -26 75
-9 126 87 263 l53 76 30 -18 c17 -10 46 -31 66 -47z"/>
<path d="M4710 8690 c0 -5 5 -10 10 -10 6 0 10 5 10 10 0 6 -4 10 -10 10 -5 0
-10 -4 -10 -10z"/>
<path d="M6908 8533 c-25 -28 -69 -141 -75 -192 -3 -25 0 -73 6 -105 11 -58
54 -165 71 -176 4 -3 10 -12 12 -20 2 -10 -6 -13 -33 -11 -41 3 -64 -17 -30
-26 32 -8 25 -21 -16 -29 -53 -9 -76 -23 -40 -24 15 0 27 -5 27 -11 0 -6 7 -9
15 -5 29 11 15 -12 -15 -24 -31 -13 -60 -40 -42 -40 22 0 72 -64 72 -92 0 -25
-2 -28 -20 -18 -16 9 -18 8 -14 -5 8 -19 4 -19 -32 0 -34 17 -38 15 -23 -17 9
-21 8 -30 -5 -50 -14 -22 -14 -26 4 -53 32 -48 19 -75 -19 -41 -21 19 -55 24
-57 9 -1 -7 -2 -19 -3 -25 -1 -9 -22 -14 -63 -15 -35 0 -99 -3 -143 -6 -240
-16 -424 -19 -495 -7 -41 6 -91 14 -110 16 -39 5 -224 62 -344 106 -43 15
-115 35 -160 43 -45 7 -93 18 -107 23 -79 30 -144 14 -329 -83 -25 -13 -50
-24 -56 -24 -6 -1 -49 -38 -95 -84 -83 -81 -164 -196 -193 -276 -8 -20 -24
-61 -37 -91 -40 -97 -26 -286 30 -413 92 -211 111 -351 67 -484 -52 -153 -56
-170 -31 -137 17 23 20 7 6 -46 -5 -19 -12 -53 -15 -75 -6 -35 -5 -38 7 -23
12 16 13 11 9 -35 l-4 -52 32 30 c27 26 31 27 28 10 -2 -13 3 -20 12 -20 25 0
59 84 62 155 2 36 7 65 12 65 11 0 55 -214 49 -233 -3 -7 -1 -18 5 -25 5 -6
12 -25 16 -42 4 -16 9 -38 13 -49 3 -12 1 -16 -6 -12 -6 4 -11 17 -11 29 -1
20 -2 20 -11 5 -7 -12 -6 -25 2 -40 7 -14 13 -71 14 -143 1 -66 5 -128 9 -137
4 -9 6 -21 3 -25 -2 -4 2 -51 9 -103 8 -55 13 -161 11 -250 -2 -129 -5 -161
-19 -183 -20 -30 -24 -117 -7 -148 7 -15 7 -35 -1 -71 -7 -35 -7 -55 0 -62 5
-5 10 -38 10 -73 0 -58 2 -63 24 -69 14 -3 53 -2 87 3 57 7 63 10 70 36 4 16
4 38 0 49 -4 11 -5 34 -3 50 l5 30 73 -7 c81 -7 175 1 198 19 16 11 17 10 -73
127 -14 19 -17 29 -9 37 8 8 -5 27 -46 70 -31 33 -56 68 -56 80 0 11 -4 32 -9
45 -17 43 -42 209 -48 307 -4 65 -1 118 10 167 8 40 13 81 10 91 -2 11 2 25
10 33 8 8 17 31 21 51 4 21 13 44 21 52 8 8 15 19 15 24 0 9 43 62 95 117 89
94 113 145 71 153 -43 9 -183 169 -164 188 3 3 30 -8 59 -24 59 -31 147 -53
249 -59 36 -3 70 -8 75 -13 9 -7 113 -27 189 -36 85 -10 122 -18 135 -28 8 -6
68 -11 153 -11 156 -1 158 -2 158 -69 0 -43 -25 -89 -66 -119 -27 -20 -91 -30
-100 -16 -3 5 -13 0 -22 -11 -16 -19 -42 -28 -89 -29 -14 -1 -23 -7 -23 -16 0
-8 -8 -15 -17 -16 -12 0 -7 -5 12 -14 16 -7 46 -11 65 -9 19 2 70 6 112 10 73
7 78 8 87 35 16 46 20 34 15 -43 -10 -139 -48 -309 -78 -353 -33 -47 -58 -97
-52 -103 3 -3 1 -11 -4 -18 -6 -6 -10 -16 -9 -20 1 -5 -1 -22 -6 -37 -5 -18
-1 -58 10 -110 10 -45 20 -124 22 -175 3 -88 2 -96 -22 -123 -13 -17 -32 -47
-41 -67 -9 -20 -22 -49 -28 -65 -10 -22 -10 -40 2 -90 26 -113 26 -132 2 -165
-16 -21 -21 -38 -16 -54 4 -13 9 -41 12 -62 3 -22 14 -53 26 -68 l20 -29 106
7 c59 4 108 8 110 9 2 2 -8 42 -21 89 -14 48 -22 96 -20 107 3 11 -2 37 -12
59 -17 37 -17 61 0 120 4 14 7 58 6 98 -2 100 37 252 85 339 63 114 65 121 71
201 2 42 9 91 14 108 12 38 37 169 49 248 9 61 37 136 52 136 4 0 8 7 8 16 0
8 -4 12 -10 9 -5 -3 -10 -2 -10 4 0 5 5 13 10 16 6 3 10 14 10 24 0 10 9 26
20 36 11 10 20 24 20 32 0 8 5 11 10 8 6 -3 10 -2 10 4 0 5 9 13 20 16 11 3
20 12 20 18 0 7 14 21 30 32 16 11 30 26 30 33 0 7 12 17 26 22 17 7 24 15 20
25 -4 11 5 16 34 21 29 5 37 10 34 23 -3 9 1 6 8 -6 13 -22 88 -68 88 -54 0 4
-7 16 -15 28 -13 19 -13 22 2 34 15 12 16 12 11 -7 -5 -21 27 -52 40 -39 4 3
0 10 -8 15 -13 8 -12 10 3 10 9 0 17 5 17 11 0 5 5 7 10 4 6 -3 10 -1 10 6 0
7 8 5 20 -6 12 -11 20 -13 20 -6 0 6 11 16 24 21 15 5 29 22 36 44 6 20 15 36
18 37 62 5 119 2 112 -5 -15 -15 -12 -26 6 -26 12 0 11 -5 -7 -20 l-24 -19 23
-1 c20 0 33 10 88 71 8 9 14 21 14 27 0 5 3 12 8 14 4 2 15 17 25 33 59 97 69
175 38 295 -21 84 -20 95 10 102 24 5 95 -90 113 -152 17 -56 63 -135 96 -165
15 -13 35 -18 80 -17 74 1 128 25 137 61 6 25 25 57 78 130 46 63 26 163 -40
202 -20 12 -35 29 -35 40 0 10 -7 19 -15 19 -9 0 -18 7 -21 15 -4 8 -10 15
-16 15 -5 0 -6 -5 -2 -11 5 -8 -3 -10 -25 -7 -18 3 -34 1 -36 -3 -3 -4 -14 -5
-24 -2 -13 3 -25 -3 -36 -21 -10 -14 -24 -26 -31 -26 -8 0 -14 -4 -14 -9 0 -5
-8 -12 -17 -15 -15 -6 -15 -5 1 13 13 14 16 28 12 46 -8 32 -22 32 -30 -1 -7
-26 -33 -29 -29 -3 3 23 21 90 25 94 2 2 20 0 40 -4 31 -7 39 -5 62 19 30 32
32 40 11 40 -19 0 -19 14 0 30 18 15 17 15 31 -25 9 -28 13 -30 54 -27 25 2
49 7 54 12 5 5 16 -1 26 -13 l18 -22 5 35 c19 128 29 183 42 240 22 98 20 158
-7 182 -19 16 -20 22 -10 38 7 11 12 27 12 35 0 8 9 24 20 35 11 11 20 27 20
35 0 9 6 12 17 8 11 -4 14 -3 9 5 -4 7 0 22 8 34 25 35 19 58 -22 97 -21 20
-41 43 -45 51 -4 8 -25 44 -48 80 -22 35 -43 76 -46 90 -4 23 0 28 41 45 27
11 49 27 52 40 4 11 13 27 20 35 8 8 23 26 33 40 11 14 45 39 76 55 32 17 65
34 74 39 9 5 28 24 41 43 28 39 27 38 129 137 39 39 71 77 71 85 0 8 -9 25
-21 37 -20 22 -22 22 -67 6 -26 -8 -67 -33 -92 -55 -41 -36 -108 -72 -200
-107 -66 -26 -225 -109 -285 -149 -66 -45 -72 -46 -124 -29 -20 7 -37 13 -38
13 -1 0 -6 20 -11 43 -9 37 -7 49 15 90 l25 47 -31 -29 c-32 -30 -40 -22 -19
17 10 20 10 21 -5 9 -9 -8 -19 -22 -22 -33 -11 -34 -28 -21 -21 16 9 48 -1 44
-25 -10 -22 -50 -39 -51 -39 -2 0 44 -19 73 -21 32 -1 -16 -3 -23 -5 -15 -4
14 -54 45 -54 33 0 -3 9 -16 20 -30 11 -14 20 -33 20 -41 0 -13 -3 -12 -20 3
-23 20 -39 13 -21 -9 18 -21 -1 -27 -26 -8 -23 18 -111 182 -158 295 -27 66
-29 67 -65 67 -23 0 -43 -7 -52 -17z m172 -300 c0 -7 5 -13 10 -13 6 0 10 -6
10 -12 0 -7 14 -42 30 -76 34 -72 36 -87 16 -108 -18 -17 -46 -8 -46 16 0 10
-7 24 -16 31 -12 10 -14 23 -10 52 5 26 1 51 -12 80 -10 23 -22 56 -26 72 l-7
30 26 -29 c14 -16 25 -35 25 -43z m30 -274 c0 -10 -4 -19 -10 -19 -5 0 -10 12
-10 26 0 14 4 23 10 19 6 -3 10 -15 10 -26z m-140 -80 c0 -6 -4 -7 -10 -4 -5
3 -10 11 -10 16 0 6 5 7 10 4 6 -3 10 -11 10 -16z m-107 -8 c-2 -6 4 -11 12
-11 8 0 15 -4 15 -8 0 -18 -12 -19 -43 -4 -41 19 -40 19 -32 31 8 14 51 7 48
-8z m71 -7 c10 -25 -1 -29 -14 -5 -6 12 -7 21 -1 21 5 0 12 -7 15 -16z m-109
-183 c10 -17 -12 -21 -25 -6 -10 12 -10 15 3 15 9 0 18 -4 22 -9z m469 -326
c7 -20 -63 -21 -90 0 -17 13 -15 14 32 15 37 0 54 -4 58 -15z m401 -405 c3 -5
2 -17 -3 -26 -9 -17 -14 -13 -25 19 -7 18 17 25 28 7z m-244 -256 c5 -6 3 -18
-5 -29 -12 -17 -13 -17 -20 1 -6 16 -9 15 -25 -10 -18 -27 -18 -27 -24 -6 -8
29 1 48 24 55 11 4 17 10 14 15 -3 5 1 10 7 13 7 2 15 -3 17 -12 2 -9 7 -21
12 -27z m-2430 -289 c17 -36 39 -71 50 -79 13 -9 22 -29 25 -57 3 -24 7 -46 9
-49 2 -4 -2 -29 -10 -56 -8 -27 -20 -82 -26 -122 -12 -82 -22 -86 -56 -26 -26
44 -29 64 -10 64 23 0 38 39 31 78 -9 47 -50 139 -75 165 -12 14 -15 24 -9 32
5 6 7 23 5 37 -6 30 10 78 25 78 5 0 24 -29 41 -65z m1831 -263 c12 -5 14 -11
9 -21 -11 -17 -41 -7 -41 14 0 16 5 17 32 7z m-52 -12 c0 -5 -4 -10 -10 -10
-5 0 -10 5 -10 10 0 6 5 10 10 10 6 0 10 -4 10 -10z m-2153 -92 c-3 -8 -6 -5
-6 6 -1 11 2 17 5 13 3 -3 4 -12 1 -19z m240 -270 c-3 -7 -5 -2 -5 12 0 14 2
19 5 13 2 -7 2 -19 0 -25z"/>
<path d="M9750 8406 c-47 -51 -144 -155 -216 -232 -72 -76 -156 -166 -186
-198 -54 -59 -56 -60 -121 -67 -37 -3 -86 -2 -109 3 -24 5 -51 10 -60 11 -9 1
-14 5 -12 9 3 5 -4 20 -15 34 -11 14 -23 38 -26 55 -6 25 -10 29 -28 23 -34
-11 -67 -35 -67 -49 0 -25 31 -86 40 -80 5 3 7 0 5 -8 -8 -18 48 -65 97 -83
47 -16 207 -19 289 -4 30 5 95 14 144 19 99 11 157 18 255 31 36 5 133 17 217
26 83 9 157 20 163 24 9 5 6 19 -9 48 -11 22 -25 43 -29 46 -5 3 -51 -1 -103
-10 -52 -8 -110 -17 -129 -19 -19 -2 -98 -13 -175 -24 -219 -32 -225 -33 -225
-23 0 5 17 25 38 44 20 19 75 75 120 124 46 49 129 135 185 191 l100 102 -24
50 c-13 28 -26 51 -29 50 -3 0 -43 -42 -90 -93z m43 -513 c-7 -2 -19 -2 -25 0
-7 3 -2 5 12 5 14 0 19 -2 13 -5z"/>
<path d="M2977 8416 c-45 -72 -52 -59 129 -233 91 -87 194 -185 230 -218 35
-33 64 -63 64 -67 0 -8 -88 -3 -198 12 -40 5 -130 14 -200 20 -70 5 -154 13
-187 16 l-60 6 -21 -49 c-12 -26 -32 -85 -44 -131 -13 -45 -26 -85 -30 -87 -3
-2 -42 7 -86 21 -43 13 -84 24 -90 24 -6 0 -18 -25 -26 -55 l-15 -55 86 -27
c47 -14 87 -27 89 -29 2 -1 -5 -30 -16 -65 l-19 -63 36 -13 c20 -7 39 -13 42
-13 3 0 14 27 24 60 10 34 21 62 24 64 3 2 67 -16 141 -41 178 -58 347 -109
387 -116 91 -17 193 83 193 189 0 30 -5 37 -35 50 -49 20 -52 19 -59 -24 -3
-22 -15 -51 -27 -66 -19 -24 -28 -27 -68 -25 -25 2 -53 6 -61 11 -15 8 -186
62 -311 98 -79 23 -119 40 -119 51 0 5 6 28 14 51 30 92 30 98 -4 104 -17 4
-33 11 -36 15 -7 12 86 11 211 -1 55 -6 156 -14 225 -20 69 -5 179 -14 245
-20 l120 -10 33 -38 c63 -71 85 -118 79 -169 -2 -25 -15 -59 -27 -75 -22 -30
-22 -31 -4 -42 47 -28 73 -35 82 -23 30 38 53 102 53 152 2 100 -24 132 -407
511 -325 322 -345 340 -357 320z"/>
<path d="M7469 8263 c-13 -16 -12 -17 4 -4 9 7 17 15 17 17 0 8 -8 3 -21 -13z"/>
<path d="M8795 7920 c3 -5 8 -10 11 -10 2 0 4 5 4 10 0 6 -5 10 -11 10 -5 0
-7 -4 -4 -10z"/>
<path d="M10470 7567 c-47 -9 -128 -26 -180 -36 -154 -32 -453 -95 -595 -126
-33 -7 -79 -16 -102 -20 -57 -9 -64 -20 -51 -80 6 -28 11 -51 13 -53 1 -1 23
2 49 8 25 5 63 13 84 16 20 3 44 8 52 11 8 3 29 7 45 9 17 2 66 13 110 23 44
11 89 21 99 23 22 3 19 15 66 -217 17 -82 35 -164 41 -181 10 -31 10 -31 54
-21 30 7 45 16 45 26 0 16 -21 117 -40 196 -6 22 -13 56 -16 75 -2 19 -9 51
-14 70 -17 60 -13 77 18 83 298 63 325 68 333 56 8 -13 37 -141 63 -279 14
-73 45 -198 52 -208 1 -2 22 2 46 8 l45 12 -8 36 c-32 158 -51 248 -78 382
-18 85 -35 166 -39 180 l-7 25 -85 -18z"/>
<path d="M2644 7321 c-99 -46 -157 -158 -153 -297 3 -110 56 -208 128 -236 37
-13 47 -5 50 43 1 24 4 45 6 48 2 2 -13 16 -34 31 -50 37 -65 76 -58 150 13
116 66 164 175 157 34 -2 65 -7 69 -10 3 -4 0 -37 -7 -74 -7 -38 -15 -113 -17
-169 -4 -93 -2 -105 23 -158 15 -32 33 -60 41 -63 29 -11 14 -42 -26 -53 -37
-10 -83 -39 -109 -70 -23 -28 -69 -125 -86 -180 -8 -30 -27 -95 -41 -143 -48
-163 -87 -207 -182 -207 -107 0 -167 83 -168 230 0 73 4 91 25 129 31 54 67
82 117 90 l38 6 3 63 c3 71 1 73 -85 47 -57 -17 -130 -76 -154 -126 -50 -102
-51 -108 -47 -223 2 -61 9 -120 14 -131 6 -11 20 -38 30 -59 45 -94 131 -146
239 -146 75 0 141 25 185 70 48 49 70 100 121 279 33 115 70 200 96 223 44 37
89 49 142 37 67 -14 105 -48 130 -114 28 -73 30 -193 4 -259 -22 -61 -75 -105
-132 -113 l-41 -6 0 -48 c0 -37 4 -49 18 -52 16 -4 16 -5 -1 -6 -10 0 -15 -5
-12 -11 7 -11 54 -4 110 17 86 32 156 133 176 255 16 96 -4 257 -37 298 -6 8
-15 25 -18 37 -4 12 -24 37 -45 56 l-39 35 29 21 c15 12 32 21 36 21 17 0 75
83 91 129 7 19 12 67 12 108 0 79 -19 133 -61 172 -20 19 -18 48 2 35 5 -3 27
-3 49 1 33 6 40 11 44 36 3 16 8 42 12 58 l5 29 -123 5 c-68 3 -134 8 -148 11
-51 12 -227 38 -290 42 -50 4 -75 0 -106 -15z m412 -157 c68 -24 114 -102 114
-194 0 -72 -17 -119 -56 -149 -25 -20 -38 -22 -98 -19 -63 4 -71 6 -96 37 -18
21 -29 48 -33 79 -6 52 9 211 24 249 8 22 13 24 56 18 27 -3 66 -13 89 -21z
m-99 -560 c-3 -3 -12 -4 -19 -1 -8 3 -5 6 6 6 11 1 17 -2 13 -5z"/>
<path d="M3590 6869 c0 -5 5 -7 10 -4 6 3 10 8 10 11 0 2 -4 4 -10 4 -5 0 -10
-5 -10 -11z"/>
<path d="M9760 6831 c-88 -47 -136 -161 -118 -279 11 -68 30 -106 80 -157 l40
-39 -52 -17 c-28 -9 -53 -18 -55 -21 -3 -2 -2 -28 2 -57 5 -47 8 -52 27 -47
42 11 134 18 336 26 113 5 214 10 224 10 33 2 93 38 125 77 45 54 65 130 58
223 -6 90 -33 153 -87 208 -45 44 -117 72 -131 50 -7 -10 -2 -102 5 -103 0 0
18 -8 38 -17 53 -24 72 -60 78 -142 9 -119 -26 -164 -135 -175 -34 -4 -68 -5
-74 -3 -7 2 -11 43 -11 121 0 189 -42 291 -142 342 -50 26 -159 25 -208 0z
m173 -110 c16 -6 33 -9 38 -5 5 3 9 2 8 -3 -1 -4 8 -30 21 -58 17 -39 24 -76
29 -168 3 -65 4 -121 2 -123 -2 -2 -39 -4 -81 -4 -66 0 -82 4 -117 27 -25 16
-52 46 -67 74 -89 162 13 320 167 260z"/>
<path d="M9230 6240 c0 -5 5 -10 11 -10 5 0 7 5 4 10 -3 6 -8 10 -11 10 -2 0
-4 -4 -4 -10z"/>
<path d="M3560 6170 c0 -5 5 -10 11 -10 5 0 7 5 4 10 -3 6 -8 10 -11 10 -2 0
-4 -4 -4 -10z"/>
<path d="M9648 6175 c-3 -6 -9 -35 -13 -66 -6 -45 -4 -56 8 -56 17 0 164 -19
297 -38 52 -8 122 -17 155 -20 72 -8 102 -25 135 -73 21 -32 25 -49 25 -114 0
-85 2 -88 73 -88 38 0 47 15 46 75 -1 46 -21 90 -65 140 l-31 35 51 0 50 0 6
38 c3 20 8 45 10 54 2 13 -5 19 -29 22 -85 13 -457 60 -496 63 -25 2 -72 8
-105 14 -33 5 -70 8 -82 6 -12 -2 -24 1 -26 6 -2 7 -6 7 -9 2z"/>
<path d="M6888 6058 c9 -9 15 -9 24 0 9 9 7 12 -12 12 -19 0 -21 -3 -12 -12z"/>
<path d="M6700 6015 c-11 -13 -10 -14 4 -9 9 3 16 10 16 15 0 13 -6 11 -20 -6z"/>
<path d="M7029 5993 c-19 -21 -47 -56 -61 -78 -19 -30 -38 -45 -77 -60 -73
-28 -69 -49 9 -41 68 7 67 10 24 -80 -17 -35 -36 -57 -62 -72 -20 -12 -50 -35
-65 -52 -33 -35 -56 -40 -35 -7 25 38 27 64 7 86 -33 35 -20 134 18 144 14 4
13 5 -5 6 -13 1 -35 -12 -52 -29 -27 -28 -30 -29 -30 -10 0 11 -4 20 -10 20
-5 0 -10 -12 -10 -28 0 -15 -5 -43 -10 -62 -6 -19 -17 -95 -25 -168 -7 -74
-18 -139 -23 -145 -25 -32 -22 -112 16 -452 15 -127 4 -253 -25 -286 -11 -13
-12 -29 -4 -79 10 -63 21 -80 52 -80 17 0 59 -40 59 -56 0 -5 -8 -14 -19 -21
-30 -19 -30 -45 3 -113 24 -51 36 -66 56 -68 14 -2 29 -8 35 -13 5 -5 24 -9
43 -9 44 0 192 40 192 52 0 5 -17 32 -37 61 -55 76 -65 96 -58 117 4 13 -7 30
-41 62 -53 50 -78 92 -71 120 3 11 0 36 -7 56 -19 58 -12 290 13 393 11 46 23
118 26 159 7 84 40 239 60 285 7 17 17 44 21 60 4 17 24 64 44 106 50 101 92
237 88 283 l-3 37 -36 -38z m-382 -970 c-3 -10 -5 -4 -5 12 0 17 2 24 5 18 2
-7 2 -21 0 -30z"/>
<path d="M6746 5933 c-4 -5 -47 -18 -94 -30 -82 -20 -82 -29 1 -23 22 1 27 -3
27 -22 0 -21 2 -20 16 8 9 18 29 36 49 44 19 8 35 17 35 22 0 10 -24 11 -34 1z"/>
<path d="M9645 5877 c-22 -61 -35 -101 -33 -103 2 -1 32 -11 68 -22 154 -49
413 -142 436 -157 31 -20 74 -113 73 -157 -1 -80 -76 -168 -144 -168 -18 0
-84 17 -146 39 -63 21 -163 55 -224 75 -60 21 -119 41 -130 46 -52 22 -54 21
-71 -35 -10 -30 -15 -57 -12 -60 4 -5 216 -79 415 -146 80 -26 113 -46 113
-68 0 -5 7 -17 16 -26 9 -9 18 -40 21 -74 10 -107 -52 -191 -140 -191 -32 0
-119 27 -462 146 -38 13 -75 24 -81 24 -6 0 -19 -25 -29 -56 -12 -38 -24 -58
-39 -64 -57 -21 -146 -126 -192 -223 -40 -87 -30 -196 26 -255 31 -33 114 -72
154 -72 67 0 157 54 265 161 39 38 103 77 132 81 53 6 99 -42 99 -103 0 -35
-40 -109 -80 -149 -41 -41 -43 -42 -101 -38 l-60 3 -28 -45 -28 -45 40 -17
c53 -24 89 -23 152 8 68 32 139 109 177 191 46 103 35 193 -32 261 -26 26 -55
44 -85 51 -42 10 -52 9 -114 -17 -59 -25 -93 -48 -161 -112 -108 -102 -162
-125 -219 -95 -47 24 -66 74 -51 136 12 49 55 118 94 151 33 28 93 41 129 28
24 -8 33 -7 38 2 33 57 24 57 181 4 78 -26 151 -52 160 -56 32 -18 136 -29
170 -19 103 30 173 132 173 254 -1 64 -13 105 -52 176 -2 3 19 11 46 18 82 21
148 107 158 206 6 60 -12 148 -34 171 -22 21 -3 40 25 25 44 -23 66 -14 83 34
20 55 29 48 -126 99 -60 20 -119 41 -130 46 -11 4 -65 23 -120 40 -55 18 -113
38 -130 45 -81 35 -186 64 -190 52z m62 -1203 c-3 -3 -12 -4 -19 -1 -8 3 -5 6
6 6 11 1 17 -2 13 -5z"/>
<path d="M3625 5750 c3 -5 8 -10 11 -10 2 0 4 5 4 10 0 6 -5 10 -11 10 -5 0
-7 -4 -4 -10z"/>
<path d="M3300 5669 c0 -5 -4 -8 -9 -4 -9 5 -134 -25 -191 -45 -14 -5 -37 -12
-52 -14 -15 -3 -42 -9 -60 -15 -18 -6 -112 -31 -208 -56 -96 -25 -180 -48
-186 -50 -9 -2 -7 -19 4 -59 13 -48 18 -55 36 -52 19 3 121 30 331 87 44 11
144 38 223 59 79 21 146 40 148 43 6 5 -25 117 -32 117 -2 0 -4 -5 -4 -11z"/>
<path d="M2315 5414 c-22 -21 -26 -31 -21 -56 9 -44 34 -68 70 -68 71 0 100
66 55 124 -27 34 -67 34 -104 0z"/>
<path d="M3400 5282 c-19 -8 -39 -16 -45 -17 -5 -2 -101 -37 -213 -79 -112
-42 -213 -76 -226 -76 -12 0 -45 12 -74 26 -52 26 -84 65 -97 117 -10 38 -17
40 -69 17 -52 -22 -56 -36 -24 -89 31 -51 53 -68 121 -93 l61 -22 -38 -17
c-58 -25 -61 -32 -42 -84 10 -25 18 -45 19 -45 10 1 325 119 372 140 22 9 69
27 105 39 36 13 79 29 95 36 17 7 51 20 78 30 26 10 47 21 47 24 0 4 -8 30
-18 58 l-18 51 -34 -16z m-607 -327 c-3 -9 -8 -14 -10 -11 -3 3 -2 9 2 15 9
16 15 13 8 -4z"/>
<path d="M3325 5073 c-59 -7 -130 -47 -188 -105 -53 -53 -63 -191 -27 -348 49
-210 49 -288 0 -335 -16 -15 -28 -31 -26 -34 6 -9 -83 -13 -130 -6 -51 7 -109
62 -147 137 -53 108 -48 184 16 248 l42 41 -27 47 c-14 25 -30 48 -35 49 -21
7 -101 -86 -122 -142 -29 -78 -27 -140 9 -233 104 -269 350 -354 522 -180 75
75 84 166 38 353 -11 44 -25 118 -31 165 -11 79 -10 89 9 132 28 63 69 88 145
88 70 0 100 -14 154 -73 72 -78 98 -153 94 -270 -1 -18 -16 -42 -44 -72 l-44
-45 29 -50 c16 -27 32 -50 36 -50 18 0 96 86 113 125 43 96 35 183 -29 315
-45 94 -145 198 -212 222 -51 18 -102 25 -145 21z"/>
<path d="M4680 4130 c0 -5 5 -10 11 -10 5 0 7 5 4 10 -3 6 -8 10 -11 10 -2 0
-4 -4 -4 -10z"/>
<path d="M6555 3109 c-4 -6 -5 -12 -2 -15 2 -3 7 2 10 11 7 17 1 20 -8 4z"/>
<path d="M9117 3106 c-3 -8 0 -20 8 -26 11 -9 16 -7 24 8 8 16 7 21 -5 26 -21
8 -21 8 -27 -8z"/>
<path d="M8500 3085 c0 -9 -9 -34 -20 -56 -15 -29 -19 -49 -14 -74 5 -30 3
-35 -12 -35 -16 0 -17 -2 -4 -10 11 -7 7 -10 -17 -10 -23 0 -33 -5 -38 -21 -5
-13 -2 -25 6 -30 17 -10 4 -24 -24 -24 -15 0 -25 -12 -40 -50 -10 -27 -24 -60
-29 -72 -6 -12 -7 -34 -4 -50 4 -15 8 -38 8 -51 0 -21 4 -23 27 -17 14 3 37
17 52 31 14 13 32 24 40 24 13 0 49 47 49 64 0 3 -10 6 -21 6 -21 0 -21 1 5
26 14 15 26 35 26 44 0 11 10 20 30 24 30 5 41 31 18 38 -7 3 -9 12 -5 22 4 9
11 14 17 11 5 -3 10 1 10 11 0 15 -2 15 -25 0 -13 -9 -31 -16 -40 -16 -24 0
-31 31 -10 46 12 9 19 30 21 66 2 29 6 65 9 80 2 15 0 30 -5 33 -6 3 -10 -1
-10 -10z m-28 -287 c-7 -7 -12 -8 -12 -2 0 14 12 26 19 19 2 -3 -1 -11 -7 -17z
m-114 -80 c-6 -18 -28 -21 -28 -4 0 9 7 16 16 16 9 0 14 -5 12 -12z m62 -33
c-7 -9 -15 -13 -17 -11 -7 7 7 26 19 26 6 0 6 -6 -2 -15z m-53 -38 c-6 -20
-27 -19 -27 2 0 14 5 19 15 14 9 -3 14 -10 12 -16z"/>
<path d="M8682 3067 c-7 -16 -12 -35 -12 -43 0 -9 -5 -24 -11 -36 -6 -11 -8
-23 -4 -26 9 -10 25 20 25 49 0 14 5 30 11 36 6 6 9 19 7 29 -4 16 -7 14 -16
-9z"/>
<path d="M6356 3043 c-4 -9 -2 -21 4 -27 7 -7 10 -7 10 1 0 6 3 18 6 27 3 9 2
16 -4 16 -5 0 -13 -8 -16 -17z"/>
<path d="M9057 3036 c-6 -15 1 -26 15 -26 4 0 8 9 8 20 0 23 -15 27 -23 6z"/>
<path d="M6110 2995 c0 -8 4 -15 9 -15 5 0 11 7 15 15 3 9 0 15 -9 15 -8 0
-15 -7 -15 -15z"/>
<path d="M9040 2989 c0 -5 5 -7 10 -4 6 3 10 8 10 11 0 2 -4 4 -10 4 -5 0 -10
-5 -10 -11z"/>
<path d="M4346 2982 c-6 -10 16 -78 29 -89 4 -5 5 10 2 32 -4 22 -7 46 -7 53
0 14 -16 16 -24 4z"/>
<path d="M6675 2969 c-10 -15 3 -25 16 -12 7 7 7 13 1 17 -6 3 -14 1 -17 -5z"/>
<path d="M8045 2959 c-4 -6 -5 -12 -2 -15 2 -3 7 2 10 11 7 17 1 20 -8 4z"/>
<path d="M8844 2961 c12 -18 -14 -44 -29 -31 -10 8 -15 5 -21 -12 -3 -13 -12
-26 -18 -30 -7 -5 -5 -11 6 -20 12 -9 15 -18 9 -27 -11 -17 -31 -6 -31 17 0
12 -3 13 -12 4 -8 -8 -8 -15 2 -27 10 -12 10 -15 -3 -15 -16 0 -30 -26 -21
-41 3 -5 -6 -9 -19 -9 -25 0 -57 -27 -57 -48 0 -7 5 -12 10 -12 6 0 10 3 10 8
0 4 29 16 65 26 36 10 72 27 79 38 8 11 20 16 29 12 12 -4 17 3 22 28 10 54 2
141 -14 146 -9 3 -11 0 -7 -7z"/>
<path d="M5640 2938 c0 -19 2 -20 10 -8 13 19 13 30 0 30 -5 0 -10 -10 -10
-22z"/>
<path d="M6078 2930 c-19 -33 -8 -49 16 -24 16 16 22 54 9 54 -5 0 -16 -13
-25 -30z"/>
<path d="M6996 2945 c-3 -8 -12 -12 -20 -9 -18 7 -26 -7 -19 -34 3 -15 13 -22
28 -22 19 0 23 6 27 40 4 40 -5 53 -16 25z"/>
<path d="M4233 2915 c-3 -9 -3 -18 -1 -21 3 -3 8 4 11 16 6 23 -1 27 -10 5z"/>
<path d="M4320 2922 c0 -5 7 -16 16 -23 14 -12 16 -11 13 5 -4 20 -29 35 -29
18z"/>
<path d="M5574 2919 c-3 -6 -1 -16 5 -22 8 -8 11 -5 11 11 0 24 -5 28 -16 11z"/>
<path d="M6684 2912 c-20 -17 -39 -62 -25 -62 9 0 71 64 71 73 0 13 -25 7 -46
-11z"/>
<path d="M8608 2890 c-18 -26 -23 -40 -14 -40 15 0 46 32 46 48 0 6 7 9 15 6
9 -4 15 0 15 10 0 29 -35 16 -62 -24z"/>
<path d="M4270 2874 c0 -28 4 -43 10 -39 6 3 10 -2 10 -12 0 -15 2 -16 10 -3
6 9 5 17 -2 21 -6 4 -8 20 -5 37 4 21 2 32 -8 36 -12 4 -15 -4 -15 -40z"/>
<path d="M6767 2897 c-23 -19 -27 -29 -21 -51 6 -26 7 -26 83 -24 54 2 80 7
88 18 18 22 16 37 -7 43 -17 4 -20 2 -15 -14 11 -33 -18 -17 -30 16 -13 40
-58 45 -98 12z m73 -7 c0 -9 -32 -30 -46 -30 -4 0 1 9 11 20 19 21 35 26 35
10z"/>
<path d="M7712 2881 c-17 -17 -36 -39 -42 -51 -15 -28 -22 -90 -10 -90 19 0
10 -28 -11 -33 -19 -5 -20 -3 -13 36 5 34 4 40 -7 31 -8 -6 -34 -16 -57 -22
-37 -9 -47 -8 -63 6 -32 27 -22 92 13 92 17 0 18 2 8 15 -10 12 -15 13 -20 4
-4 -6 -13 -9 -19 -5 -5 4 -19 -2 -29 -12 -14 -14 -24 -17 -35 -10 -11 6 -27 3
-47 -7 -16 -8 -30 -12 -30 -7 0 4 -7 17 -16 28 -13 16 -15 16 -10 1 3 -9 -5
-37 -19 -62 -22 -43 -22 -45 -4 -45 10 0 19 -4 19 -10 0 -5 17 -16 38 -25 20
-9 53 -24 72 -33 19 -9 46 -19 60 -22 14 -3 25 -11 25 -19 0 -22 37 -30 66
-15 15 7 29 11 33 9 3 -3 4 -2 1 2 -6 7 24 43 37 43 4 0 8 -9 8 -21 0 -19 1
-19 16 -4 13 12 27 14 63 9 25 -3 50 -10 56 -15 18 -18 23 -8 24 50 0 50 -2
58 -17 57 -12 -1 -17 6 -16 22 0 12 -5 22 -13 22 -18 0 -17 -35 2 -50 25 -20
-1 -46 -41 -42 -40 5 -44 19 -9 28 25 6 35 24 14 24 -6 0 -9 8 -6 19 2 10 0
25 -4 34 -12 21 7 33 26 17 12 -10 15 -9 15 3 0 9 -6 22 -13 29 -8 7 -12 20
-9 30 6 25 0 23 -36 -11z m-242 -106 c0 -20 -5 -25 -25 -25 -16 0 -25 6 -25
15 0 8 9 15 20 15 11 0 20 5 20 10 0 6 2 10 5 10 3 0 5 -11 5 -25z m-80 -16
c0 -11 -4 -17 -10 -14 -5 3 -10 15 -10 26 0 11 5 17 10 14 6 -3 10 -15 10 -26z
m320 16 c0 -8 -7 -15 -15 -15 -9 0 -12 6 -9 15 4 8 10 15 15 15 5 0 9 -7 9
-15z m-90 -42 c0 -20 -28 -53 -47 -53 -20 0 -16 21 9 47 25 27 38 29 38 6z
m-80 -38 c0 -8 -4 -15 -10 -15 -5 0 -10 7 -10 15 0 8 5 15 10 15 6 0 10 -7 10
-15z"/>
<path d="M4891 2881 c-9 -6 -11 -15 -6 -27 5 -11 7 -24 6 -30 -1 -7 5 -14 12
-17 9 -3 12 5 9 32 -5 50 -5 51 -21 42z"/>
<path d="M4335 2870 c3 -5 8 -10 11 -10 2 0 4 5 4 10 0 6 -5 10 -11 10 -5 0
-7 -4 -4 -10z"/>
<path d="M6090 2865 c-7 -9 -11 -18 -8 -20 9 -10 38 7 38 21 0 18 -14 18 -30
-1z"/>
<path d="M5288 2829 c3 -28 9 -39 21 -39 13 0 13 2 2 9 -8 5 -12 18 -8 30 3
11 0 25 -7 30 -8 7 -10 -1 -8 -30z"/>
<path d="M6401 2854 c0 -11 3 -14 6 -6 3 7 2 16 -1 19 -3 4 -6 -2 -5 -13z"/>
<path d="M6960 2860 c0 -5 5 -10 10 -10 6 0 10 5 10 10 0 6 -4 10 -10 10 -5 0
-10 -4 -10 -10z"/>
<path d="M8687 2864 c-11 -11 -9 -52 4 -59 16 -10 18 -3 11 33 -4 19 -10 30
-15 26z"/>
<path d="M4214 2842 c-4 -12 -10 -22 -15 -22 -5 0 -9 -9 -9 -20 0 -15 5 -19
23 -16 12 3 27 5 32 6 6 0 1 7 -10 16 -17 13 -18 16 -5 24 12 7 12 12 2 22
-10 10 -14 8 -18 -10z"/>
<path d="M5381 2838 c-6 -16 -15 -28 -21 -28 -5 0 -10 -4 -10 -10 0 -18 19
-10 36 15 9 13 14 30 11 37 -3 8 -9 2 -16 -14z"/>
<path d="M6180 2844 c0 -8 5 -12 10 -9 6 3 10 10 10 16 0 5 -4 9 -10 9 -5 0
-10 -7 -10 -16z"/>
<path d="M7890 2849 c0 -5 5 -7 10 -4 6 3 10 8 10 11 0 2 -4 4 -10 4 -5 0 -10
-5 -10 -11z"/>
<path d="M8634 2849 c-3 -6 -22 -17 -40 -25 -33 -14 -39 -26 -34 -69 2 -16 0
-17 -14 -6 -19 16 -50 6 -42 -14 3 -8 1 -17 -4 -20 -15 -10 -12 -35 5 -35 8 0
19 8 24 19 6 10 23 22 38 26 47 11 75 34 68 55 -3 11 1 30 10 44 10 15 12 27
6 30 -5 4 -13 1 -17 -5z"/>
<path d="M4146 2835 c-10 -28 -7 -53 8 -58 12 -5 13 2 9 31 -7 45 -9 47 -17
27z"/>
<path d="M6683 2831 c-23 -20 -30 -41 -14 -41 5 0 16 7 25 15 8 8 19 15 25 15
6 0 8 7 5 15 -8 19 -14 19 -41 -4z"/>
<path d="M4383 2823 c-27 -14 -33 -22 -32 -47 0 -17 3 -25 6 -18 3 7 17 19 33
27 15 8 30 23 33 35 6 24 2 24 -40 3z"/>
<path d="M5600 2815 c0 -8 2 -15 4 -15 2 0 6 7 10 15 3 8 1 15 -4 15 -6 0 -10
-7 -10 -15z"/>
<path d="M6590 2803 c-13 -17 -17 -29 -10 -31 14 -5 50 27 50 45 0 21 -17 15
-40 -14z"/>
<path d="M6995 2820 c-4 -7 -1 -16 6 -21 23 -14 32 -10 18 9 -7 9 -14 18 -15
20 -1 2 -5 -2 -9 -8z"/>
<path d="M8232 2803 c-7 -3 -19 -19 -28 -36 l-15 -32 23 26 c13 15 30 28 38
31 7 2 10 7 5 10 -6 3 -16 3 -23 1z"/>
<path d="M5021 2784 c0 -11 3 -14 6 -6 3 7 2 16 -1 19 -3 4 -6 -2 -5 -13z"/>
<path d="M7193 2792 c-10 -7 -10 -12 1 -27 13 -18 14 -17 14 8 0 15 -1 27 -2
27 0 0 -7 -4 -13 -8z"/>
<path d="M4928 2765 c2 -14 8 -23 12 -20 10 6 1 45 -10 45 -4 0 -5 -11 -2 -25z"/>
<path d="M7902 2778 c-7 -7 -12 -18 -12 -25 0 -7 -3 -13 -7 -13 -12 0 -33 -51
-33 -77 0 -16 4 -21 15 -17 9 4 15 11 14 18 -3 17 13 69 29 94 16 25 12 38 -6
20z"/>
<path d="M4611 2764 c0 -11 3 -14 6 -6 3 7 2 16 -1 19 -3 4 -6 -2 -5 -13z"/>
<path d="M4722 2753 c1 -16 -2 -38 -6 -50 -4 -13 -4 -23 1 -23 4 0 18 -3 31
-6 20 -6 22 -3 22 40 0 34 -4 46 -15 46 -8 0 -15 5 -15 10 0 6 -5 10 -10 10
-6 0 -9 -12 -8 -27z"/>
<path d="M5615 2760 c3 -5 8 -10 11 -10 2 0 4 5 4 10 0 6 -5 10 -11 10 -5 0
-7 -4 -4 -10z"/>
<path d="M4578 2735 c-6 -30 -3 -43 8 -33 3 4 4 19 2 35 l-3 28 -7 -30z"/>
<path d="M4911 2743 c-1 -12 4 -25 10 -28 7 -5 5 -15 -5 -31 -20 -29 -20 -34
-2 -34 23 0 37 67 16 80 -4 3 -10 12 -13 20 -4 10 -6 8 -6 -7z"/>
<path d="M7935 2727 c-20 -43 -19 -48 13 -36 23 9 26 20 13 54 -7 17 -10 15
-26 -18z"/>
<path d="M4186 2735 c-3 -8 -2 -23 1 -32 6 -15 7 -15 14 3 11 27 11 44 0 44
-5 0 -11 -7 -15 -15z"/>
<path d="M8033 2730 c-11 -16 -10 -18 2 -14 8 4 15 12 15 20 0 19 -3 18 -17
-6z"/>
<path d="M4287 2714 c-2 -13 -1 -24 4 -24 4 0 12 -12 17 -27 6 -16 11 -22 11
-15 1 6 8 12 16 12 13 0 15 21 6 71 0 4 -12 7 -25 7 -17 0 -25 -7 -29 -24z"/>
<path d="M4361 2724 c0 -11 3 -14 6 -6 3 7 2 16 -1 19 -3 4 -6 -2 -5 -13z"/>
<path d="M4149 2728 c-5 -17 -4 -50 3 -54 4 -3 8 1 8 10 0 8 3 21 6 30 3 9 1
16 -5 16 -6 0 -11 -1 -12 -2z"/>
<path d="M8160 2710 c-6 -11 -8 -20 -4 -20 3 0 1 -7 -6 -15 -18 -22 0 -37 36
-33 31 3 49 38 20 38 -10 0 -16 9 -16 25 0 30 -15 33 -30 5z"/>
<path d="M5038 2681 c-10 -20 -15 -46 -12 -57 3 -12 1 -25 -5 -28 -6 -4 -11
-14 -11 -23 0 -13 3 -13 15 -3 8 7 15 22 15 34 0 12 5 27 11 33 6 6 9 26 7 45
l-3 35 -17 -36z m12 -31 c0 -5 -5 -10 -11 -10 -5 0 -7 5 -4 10 3 6 8 10 11 10
2 0 4 -4 4 -10z"/>
<path d="M5196 2707 c3 -10 9 -15 12 -12 3 3 0 11 -7 18 -10 9 -11 8 -5 -6z"/>
<path d="M7240 2703 c0 -12 5 -25 10 -28 13 -8 13 15 0 35 -8 12 -10 11 -10
-7z"/>
<path d="M8269 2702 c-25 -27 -31 -42 -17 -42 7 0 21 14 30 30 19 33 12 39
-13 12z"/>
<path d="M8541 2680 c-24 -22 -41 -40 -39 -40 3 0 26 9 52 20 32 15 46 27 46
40 0 28 -9 25 -59 -20z"/>
<path d="M5070 2631 c0 -5 5 -13 10 -16 6 -3 10 -2 10 4 0 5 -4 13 -10 16 -5
3 -10 2 -10 -4z"/>
<path d="M7092 2594 c4 -21 22 -23 26 -1 2 10 -3 17 -13 17 -10 0 -15 -6 -13
-16z"/>
<path d="M7855 2600 c3 -5 8 -10 11 -10 2 0 4 5 4 10 0 6 -5 10 -11 10 -5 0
-7 -4 -4 -10z"/>
<path d="M7110 2495 c0 -8 -4 -15 -10 -15 -5 0 -10 -4 -10 -10 0 -19 17 -10
28 15 7 15 8 25 2 25 -6 0 -10 -7 -10 -15z"/>
<path d="M7610 2305 c0 -9 5 -15 11 -13 6 2 11 8 11 13 0 5 -5 11 -11 13 -6 2
-11 -4 -11 -13z"/>
<path d="M6105 2110 c3 -5 8 -10 11 -10 2 0 4 5 4 10 0 6 -5 10 -11 10 -5 0
-7 -4 -4 -10z"/>
</g>
</svg>
